<svg xmlns="http://www.w3.org/2000/svg" viewBox="0 0 480 220" role="img" aria-labelledby="title desc">
  <title id="title">Casque de sécurité</title>
  <desc id="desc">Un travailleur de chantier porte un casque orange avec jugulaire.</desc>
  <rect x="2" y="2" width="476" height="216" rx="24" fill="#FFFDF8" stroke="#C7D2E0" stroke-width="3"/>
  <path d="M34 188H446" stroke="#C7D2E0" stroke-width="4" stroke-linecap="round"/>
  <g fill="none" stroke="#1B3A63" stroke-width="5" stroke-linecap="round" stroke-linejoin="round">
<g transform="translate(240 106) scale(1.35)">
    <circle cx="0" cy="-22" r="12" fill="#F7F1E7"/>
    <path d="M-13-25Q0-39 13-25V-20H-13Z" fill="#FF6B35" />
    <path d="M-13-8Q0-14 13-8L11 35H-11Z" fill="#84B7EC"/>
    <path d="M-6-10L0 8L6-10M-10 16H10" stroke="#C9451A" stroke-width="4"/>
    <path d="M-12 5L-24 30M12 5L25 29"/><path d="M-8 35L-14 64M8 35L16 64"/>
  </g><path d="M220 80Q240 93 260 80" stroke="#C9451A" stroke-width="5"/><g transform="translate(115 118) scale(0.7)">
    <path d="M-42 16Q-38-32 0-38Q38-32 42 16Z" fill="#FF6B35"/>
    <path d="M-48 16H48M0-36V9"/>
  </g><path d="M335 132H412" stroke="#3D7FCA"/><path d="M350 115L366 132L397 98" stroke="#1E7E54" stroke-width="8"/>
  </g>
</svg>
